<svg width="100" height="100" viewBox="0 0 100 100" fill="none" xmlns="http://www.w3.org/2000/svg">
<rect width="100" height="100" rx="50" fill="#0085EA"/>
<path d="M31.9555 50.44C30.1688 50.44 28.6088 50.12 27.2755 49.48C25.9688 48.8133 24.8488 47.8933 23.9155 46.72L28.1155 42.68C28.5955 43.3467 29.1555 43.8533 29.7955 44.2C30.4621 44.5467 31.2088 44.72 32.0355 44.72C32.8355 44.72 33.5288 44.56 34.1155 44.24C34.7021 43.8933 35.1688 43.4133 35.5155 42.8C35.8621 42.16 36.0355 41.3733 36.0355 40.44V21.76H42.3555V40.08C42.3555 42.1867 41.9288 44.0133 41.0755 45.56C40.2221 47.1067 39.0221 48.3067 37.4755 49.16C35.9288 50.0133 34.0888 50.44 31.9555 50.44Z" fill="white"/>
<path d="M52.9544 80V51.76H57.3544L59.2344 57.4V80H52.9544ZM72.4344 80L55.7944 58.68L57.3544 51.76L73.9944 73.08L72.4344 80ZM72.4344 80L70.7544 74.36V51.76H77.0344V80H72.4344Z" fill="white"/>
</svg>
