<svg width="335" height="100" viewBox="0 0 335 100" fill="none" xmlns="http://www.w3.org/2000/svg">
<rect width="100" height="100" rx="50" fill="#0085EA"/>
<path d="M119.455 65.4C117.855 65.4 116.441 65.0933 115.215 64.48C114.015 63.84 113.028 62.9867 112.255 61.92L114.895 59.48C115.401 60.2267 116.028 60.8 116.775 61.2C117.548 61.6 118.401 61.8 119.335 61.8C120.268 61.8 121.095 61.6 121.815 61.2C122.535 60.8 123.095 60.2133 123.495 59.44C123.921 58.64 124.135 57.6667 124.135 56.52V37.24H127.895V56.32C127.895 58.16 127.521 59.76 126.775 61.12C126.055 62.48 125.055 63.5333 123.775 64.28C122.521 65.0267 121.081 65.4 119.455 65.4ZM146.779 65.4C144.806 65.4 142.966 65.04 141.259 64.32C139.553 63.5733 138.059 62.5467 136.779 61.24C135.499 59.9067 134.499 58.3733 133.779 56.64C133.086 54.9067 132.739 53.0533 132.739 51.08C132.739 49.08 133.086 47.2267 133.779 45.52C134.499 43.7867 135.486 42.2667 136.739 40.96C138.019 39.6533 139.499 38.64 141.179 37.92C142.886 37.2 144.726 36.84 146.699 36.84C148.673 36.84 150.499 37.2 152.179 37.92C153.886 38.64 155.379 39.6533 156.659 40.96C157.939 42.2667 158.939 43.7867 159.659 45.52C160.379 47.2533 160.739 49.12 160.739 51.12C160.739 53.0933 160.379 54.9467 159.659 56.68C158.939 58.4133 157.939 59.9333 156.659 61.24C155.406 62.5467 153.926 63.5733 152.219 64.32C150.539 65.04 148.726 65.4 146.779 65.4ZM146.699 61.8C148.699 61.8 150.446 61.3467 151.939 60.44C153.459 59.5067 154.659 58.24 155.539 56.64C156.419 55.0133 156.859 53.16 156.859 51.08C156.859 49.5333 156.606 48.12 156.099 46.84C155.593 45.5333 154.886 44.4 153.979 43.44C153.073 42.48 152.006 41.7467 150.779 41.24C149.553 40.7067 148.193 40.44 146.699 40.44C144.726 40.44 142.979 40.8933 141.459 41.8C139.966 42.7067 138.779 43.96 137.899 45.56C137.046 47.16 136.619 49 136.619 51.08C136.619 52.6267 136.859 54.0667 137.339 55.4C137.846 56.7067 138.539 57.84 139.419 58.8C140.326 59.7333 141.393 60.4667 142.619 61C143.873 61.5333 145.233 61.8 146.699 61.8ZM168.417 65V61.72H176.817C178.417 61.72 179.671 61.2533 180.577 60.32C181.484 59.36 181.937 58.2133 181.937 56.88C181.937 55.9733 181.737 55.16 181.337 54.44C180.937 53.6933 180.351 53.1067 179.577 52.68C178.831 52.2533 177.951 52.04 176.937 52.04H168.417V48.76H176.377C177.711 48.76 178.764 48.4133 179.537 47.72C180.337 47 180.737 45.9733 180.737 44.64C180.737 43.3067 180.324 42.2933 179.497 41.6C178.671 40.88 177.577 40.52 176.217 40.52H168.417V37.24H176.297C178.111 37.24 179.617 37.5733 180.817 38.24C182.044 38.88 182.964 39.7333 183.577 40.8C184.217 41.8667 184.537 43.04 184.537 44.32C184.537 45.8133 184.124 47.12 183.297 48.24C182.497 49.36 181.311 50.24 179.737 50.88L180.057 49.68C181.844 50.32 183.231 51.2933 184.217 52.6C185.231 53.88 185.737 55.4 185.737 57.16C185.737 58.6267 185.377 59.9467 184.657 61.12C183.937 62.2933 182.897 63.24 181.537 63.96C180.204 64.6533 178.564 65 176.617 65H168.417ZM165.897 65V37.24H169.657V65H165.897ZM211.939 65V53.92C211.939 52.48 211.486 51.2933 210.579 50.36C209.673 49.4267 208.499 48.96 207.059 48.96C206.099 48.96 205.246 49.1733 204.499 49.6C203.753 50.0267 203.166 50.6133 202.739 51.36C202.313 52.1067 202.099 52.96 202.099 53.92L200.619 53.08C200.619 51.64 200.939 50.36 201.579 49.24C202.219 48.12 203.113 47.24 204.259 46.6C205.406 45.9333 206.699 45.6 208.139 45.6C209.579 45.6 210.846 45.96 211.939 46.68C213.059 47.4 213.939 48.3467 214.579 49.52C215.219 50.6667 215.539 51.8933 215.539 53.2V65H211.939ZM198.499 65V46H202.099V65H198.499ZM229.213 65.4C227.32 65.4 225.613 64.9733 224.093 64.12C222.573 63.24 221.373 62.0533 220.493 60.56C219.613 59.0667 219.173 57.3733 219.173 55.48C219.173 53.6133 219.6 51.9333 220.453 50.44C221.333 48.9467 222.507 47.7733 223.973 46.92C225.467 46.04 227.133 45.6 228.973 45.6C230.733 45.6 232.28 46 233.613 46.8C234.973 47.6 236.027 48.7067 236.773 50.12C237.547 51.5333 237.933 53.1333 237.933 54.92C237.933 55.1867 237.92 55.48 237.893 55.8C237.867 56.0933 237.813 56.44 237.733 56.84H221.693V53.84H235.813L234.493 55C234.493 53.72 234.267 52.64 233.813 51.76C233.36 50.8533 232.72 50.16 231.893 49.68C231.067 49.1733 230.067 48.92 228.893 48.92C227.667 48.92 226.587 49.1867 225.653 49.72C224.72 50.2533 224 51 223.493 51.96C222.987 52.92 222.733 54.0533 222.733 55.36C222.733 56.6933 223 57.8667 223.533 58.88C224.067 59.8667 224.827 60.64 225.813 61.2C226.8 61.7333 227.933 62 229.213 62C230.28 62 231.253 61.8133 232.133 61.44C233.04 61.0667 233.813 60.5067 234.453 59.76L236.773 62.12C235.867 63.1867 234.747 64 233.413 64.56C232.107 65.12 230.707 65.4 229.213 65.4ZM250.659 65.4C248.765 65.4 247.059 64.9733 245.539 64.12C244.019 63.24 242.819 62.0533 241.939 60.56C241.059 59.0667 240.619 57.3733 240.619 55.48C240.619 53.6133 241.045 51.9333 241.899 50.44C242.779 48.9467 243.952 47.7733 245.419 46.92C246.912 46.04 248.579 45.6 250.419 45.6C252.179 45.6 253.725 46 255.059 46.8C256.419 47.6 257.472 48.7067 258.219 50.12C258.992 51.5333 259.379 53.1333 259.379 54.92C259.379 55.1867 259.365 55.48 259.339 55.8C259.312 56.0933 259.259 56.44 259.179 56.84H243.139V53.84H257.259L255.939 55C255.939 53.72 255.712 52.64 255.259 51.76C254.805 50.8533 254.165 50.16 253.339 49.68C252.512 49.1733 251.512 48.92 250.339 48.92C249.112 48.92 248.032 49.1867 247.099 49.72C246.165 50.2533 245.445 51 244.939 51.96C244.432 52.92 244.179 54.0533 244.179 55.36C244.179 56.6933 244.445 57.8667 244.979 58.88C245.512 59.8667 246.272 60.64 247.259 61.2C248.245 61.7333 249.379 62 250.659 62C251.725 62 252.699 61.8133 253.579 61.44C254.485 61.0667 255.259 60.5067 255.899 59.76L258.219 62.12C257.312 63.1867 256.192 64 254.859 64.56C253.552 65.12 252.152 65.4 250.659 65.4ZM271.344 65.4C269.584 65.4 268.011 64.9733 266.624 64.12C265.237 63.24 264.131 62.0533 263.304 60.56C262.504 59.0667 262.104 57.3867 262.104 55.52C262.104 53.6533 262.504 51.9733 263.304 50.48C264.131 48.9867 265.237 47.8 266.624 46.92C268.011 46.04 269.584 45.6 271.344 45.6C272.757 45.6 274.037 45.9067 275.184 46.52C276.331 47.1067 277.251 47.9333 277.944 49C278.664 50.04 279.064 51.2533 279.144 52.64V58.36C279.064 59.72 278.677 60.9333 277.984 62C277.291 63.0667 276.371 63.9067 275.224 64.52C274.077 65.1067 272.784 65.4 271.344 65.4ZM271.944 62C273.144 62 274.184 61.72 275.064 61.16C275.971 60.6 276.677 59.84 277.184 58.88C277.691 57.8933 277.944 56.7733 277.944 55.52C277.944 54.2133 277.677 53.08 277.144 52.12C276.637 51.16 275.931 50.4 275.024 49.84C274.144 49.28 273.104 49 271.904 49C270.704 49 269.651 49.28 268.744 49.84C267.837 50.4 267.117 51.1733 266.584 52.16C266.077 53.12 265.824 54.2267 265.824 55.48C265.824 56.76 266.077 57.8933 266.584 58.88C267.117 59.84 267.837 60.6 268.744 61.16C269.677 61.72 270.744 62 271.944 62ZM281.344 65H277.704V59.88L278.384 55.24L277.704 50.64V36.44H281.344V65Z" fill="#0085EA"/>
<path d="M31.9555 50.44C30.1688 50.44 28.6088 50.12 27.2755 49.48C25.9688 48.8133 24.8488 47.8933 23.9155 46.72L28.1155 42.68C28.5955 43.3467 29.1555 43.8533 29.7955 44.2C30.4621 44.5467 31.2088 44.72 32.0355 44.72C32.8355 44.72 33.5288 44.56 34.1155 44.24C34.7021 43.8933 35.1688 43.4133 35.5155 42.8C35.8621 42.16 36.0355 41.3733 36.0355 40.44V21.76H42.3555V40.08C42.3555 42.1867 41.9288 44.0133 41.0755 45.56C40.2221 47.1067 39.0221 48.3067 37.4755 49.16C35.9288 50.0133 34.0888 50.44 31.9555 50.44Z" fill="white"/>
<path d="M52.9544 80V51.76H57.3544L59.2344 57.4V80H52.9544ZM72.4344 80L55.7944 58.68L57.3544 51.76L73.9944 73.08L72.4344 80ZM72.4344 80L70.7544 74.36V51.76H77.0344V80H72.4344Z" fill="white"/>
<circle cx="311" cy="51" r="16" fill="#0085EA"/>
<circle cx="311" cy="51" r="8" fill="white"/>
<rect x="315" y="63.5886" width="8" height="23.2754" transform="rotate(-35 315 63.5886)" fill="#0085EA"/>
</svg>
